<svg width="42" height="42" viewBox="0 0 42 42" fill="none" xmlns="http://www.w3.org/2000/svg">
<g opacity="0.5">
<mask id="mask0_2036_71" style="mask-type:alpha" maskUnits="userSpaceOnUse" x="6" y="10" width="30" height="23">
<path fill-rule="evenodd" clip-rule="evenodd" d="M29.0502 17.3165L29.1107 18.6896L30.4686 18.9023C32.2784 19.1859 33.6 20.694 33.6 22.4449C33.6 24.3893 31.9695 26.04 29.8644 26.04H29.8565H29.8487H29.8408H29.833H29.8251H29.8173H29.8095H29.8017H29.7939H29.7861H29.7784H29.7706H29.7628H29.7551H29.7473H29.7396H29.7319H29.7242H29.7165H29.7088H29.7011H29.6934H29.6857H29.6781H29.6704H29.6628H29.6551H29.6475H29.6399H29.6323H29.6247H29.6171H29.6095H29.6019H29.5943H29.5868H29.5792H29.5717H29.5642H29.5567H29.5491H29.5416H29.5341H29.5267H29.5192H29.5117H29.5042H29.4968H29.4893H29.4819H29.4745H29.4671H29.4597H29.4523H29.4449H29.4375H29.4301H29.4228H29.4154H29.4081H29.4007H29.3934H29.3861H29.3788H29.3715H29.3642H29.3569H29.3496H29.3423H29.3351H29.3278H29.3206H29.3134H29.3061H29.2989H29.2917H29.2845H29.2773H29.2702H29.263H29.2558H29.2487H29.2415H29.2344H29.2273H29.2202H29.2131H29.206H29.1989H29.1918H29.1847H29.1776H29.1706H29.1635H29.1565H29.1495H29.1425H29.1354H29.1284H29.1214H29.1145H29.1075H29.1005H29.0936H29.0866H29.0797H29.0727H29.0658H29.0589H29.052H29.0451H29.0382H29.0313H29.0245H29.0176H29.0107H29.0039H28.9971H28.9902H28.9834H28.9766H28.9698H28.963H28.9562H28.9495H28.9427H28.9359H28.9292H28.9224H28.9157H28.909H28.9023H28.8956H28.8889H28.8822H28.8755H28.8689H28.8622H28.8555H28.8489H28.8423H28.8356H28.829H28.8224H28.8158H28.8092H28.8027H28.7961H28.7895H28.783H28.7764H28.7699H28.7634H28.7568H28.7503H28.7438H28.7373H28.7308H28.7244H28.7179H28.7114H28.705H28.6986H28.6921H28.6857H28.6793H28.6729H28.6665H28.6601H28.6537H28.6474H28.641H28.6346H28.6283H28.622H28.6156H28.6093H28.603H28.5967H28.5904H28.5842H28.5779H28.5716H28.5654H28.5591H28.5529H28.5466H28.5404H28.5342H28.528H28.5218H28.5156H28.5095H28.5033H28.4971H28.491H28.4848H28.4787H28.4726H28.4665H28.4604H28.4543H28.4482H28.4421H28.436H28.43H28.4239H28.4179H28.4118H28.4058H28.3998H28.3938H28.3878H28.3818H28.3758H28.3698H28.3639H28.3579H28.352H28.346H28.3401H28.3342H28.3283H28.3224H28.3165H28.3106H28.3047H28.2988H28.293H28.2871H28.2813H28.2755H28.2696H28.2638H28.258H28.2522H28.2464H28.2407H28.2349H28.2291H28.2234H28.2176H28.2119H28.2062H28.2004H28.1947H28.189H28.1833H28.1777H28.172H28.1663H28.1607H28.155H28.1494H28.1437H28.1381H28.1325H28.1269H28.1213H28.1157H28.1101H28.1046H28.099H28.0935H28.0879H28.0824H28.0769H28.0713H28.0658H28.0603H28.0548H28.0494H28.0439H28.0384H28.033H28.0275H28.0221H28.0167H28.0112H28.0058H28.0004H27.995H27.9897H27.9843H27.9789H27.9736H27.9682H27.9629H27.9575H27.9522H27.9469H27.9416H27.9363H27.931H27.9257H27.9205H27.9152H27.91H27.9047H27.8995H27.8942H27.889H27.8838H27.8786H27.8734H27.8683H27.8631H27.8579H27.8528H27.8476H27.8425H27.8373H27.8322H27.8271H27.822H27.8169H27.8118H27.8068H27.8017H27.7966H27.7916H27.7865H27.7815H27.7765H27.7715H27.7665H27.7615H27.7565H27.7515H27.7465H27.7416H27.7366H27.7317H27.7267H27.7218H27.7169H27.712H27.7071H27.7022H27.6973H27.6924H27.6876H27.6827H27.6779H27.673H27.6682H27.6634H27.6586H27.6538H27.649H27.6442H27.6394H27.6346H27.6299H27.6251H27.6204H27.6156H27.6109H27.6062H27.6015H27.5968H27.5921H27.5874H27.5828H27.5781H27.5734H27.5688H27.5642H27.5595H27.5549H27.5503H27.5457H27.5411H27.5365H27.532H27.5274H27.5228H27.5183H27.5137H27.5092H27.5047H27.5002H27.4957H27.4912H27.4867H27.4822H27.4777H27.4733H27.4688H27.4644H27.46H27.4555H27.4511H27.4467H27.4423H27.4379H27.4335H27.4292H27.4248H27.4204H27.4161H27.4118H27.4074H27.4031H27.3988H27.3945H27.3902H27.3859H27.3816H27.3774H27.3731H27.3689H27.3646H27.3604H27.3562H27.352H27.3478H27.3436H27.3394H27.3352H27.331H27.3269H27.3227H27.3186H27.3144H27.3103H27.3062H27.3021H27.298H27.2939H27.2898H27.2857H27.2817H27.2776H27.2736H27.2695H27.2655H27.2615H27.2575H27.2535H27.2495H27.2455H27.2415H27.2375H27.2336H27.2296H27.2257H27.2218H27.2178H27.2139H27.21H27.2061H27.2022H27.1983H27.1945H27.1906H27.1868H27.1829H27.1791H27.1752H27.1714H27.1676H27.1638H27.16H27.1562H27.1525H27.1487H27.1449H27.1412H27.1375H27.1337H27.13H27.1263H27.1226H27.1189H27.1152H27.1115H27.1079H27.1042H27.1006H27.0969H27.0933H27.0896H27.086H27.0824H27.0788H27.0752H27.0717H27.0681H27.0645H27.061H27.0574H27.0539H27.0504H27.0468H27.0433H27.0398H27.0363H27.0329H27.0294H27.0259H27.0225H27.019H27.0156H27.0121H27.0087H27.0053H27.0019H26.9985H26.9951H26.9917H26.9884V27.72H29.8644C32.8555 27.72 35.28 25.3585 35.28 22.4449C35.28 19.8179 33.3069 17.6465 30.7286 17.2426C30.5532 13.26 27.1944 10.08 23.0639 10.08C20.4577 10.08 18.1596 11.3481 16.7721 13.283C16.5208 13.6334 16.2994 14.0058 16.1114 14.3965C15.8956 14.2684 15.6676 14.1579 15.4291 14.0682C14.9837 13.9006 14.5019 13.8059 13.9953 13.8059C11.7902 13.8059 10.006 15.5085 9.91609 17.6351C8.03385 18.4614 6.71997 20.3016 6.71997 22.4449C6.71997 25.3585 9.14359 27.72 12.1329 27.72H14.8845V26.04H14.881H14.8776H14.8741H14.8706H14.8671H14.8637H14.8602H14.8566H14.8531H14.8496H14.8461H14.8425H14.839H14.8354H14.8319H14.8283H14.8247H14.8212H14.8176H14.814H14.8104H14.8067H14.8031H14.7995H14.7959H14.7922H14.7886H14.7849H14.7812H14.7776H14.7739H14.7702H14.7665H14.7628H14.7591H14.7554H14.7516H14.7479H14.7442H14.7404H14.7367H14.7329H14.7291H14.7254H14.7216H14.7178H14.714H14.7102H14.7063H14.7025H14.6987H14.6949H14.691H14.6872H14.6833H14.6794H14.6755H14.6717H14.6678H14.6639H14.66H14.6561H14.6521H14.6482H14.6443H14.6403H14.6364H14.6324H14.6284H14.6245H14.6205H14.6165H14.6125H14.6085H14.6045H14.6005H14.5964H14.5924H14.5884H14.5843H14.5803H14.5762H14.5721H14.5681H14.564H14.5599H14.5558H14.5517H14.5475H14.5434H14.5393H14.5352H14.531H14.5269H14.5227H14.5185H14.5143H14.5102H14.506H14.5018H14.4976H14.4933H14.4891H14.4849H14.4807H14.4764H14.4722H14.4679H14.4636H14.4594H14.4551H14.4508H14.4465H14.4422H14.4379H14.4336H14.4292H14.4249H14.4206H14.4162H14.4119H14.4075H14.4031H14.3987H14.3944H14.39H14.3856H14.3811H14.3767H14.3723H14.3679H14.3634H14.359H14.3545H14.3501H14.3456H14.3411H14.3366H14.3321H14.3276H14.3231H14.3186H14.3141H14.3096H14.305H14.3005H14.2959H14.2914H14.2868H14.2822H14.2777H14.2731H14.2685H14.2639H14.2593H14.2546H14.25H14.2454H14.2407H14.2361H14.2314H14.2268H14.2221H14.2174H14.2127H14.208H14.2033H14.1986H14.1939H14.1892H14.1844H14.1797H14.175H14.1702H14.1654H14.1607H14.1559H14.1511H14.1463H14.1415H14.1367H14.1319H14.1271H14.1222H14.1174H14.1126H14.1077H14.1028H14.098H14.0931H14.0882H14.0833H14.0784H14.0735H14.0686H14.0637H14.0588H14.0538H14.0489H14.0439H14.039H14.034H14.029H14.0241H14.0191H14.0141H14.0091H14.0041H13.9991H13.994H13.989H13.984H13.9789H13.9739H13.9688H13.9637H13.9586H13.9536H13.9485H13.9434H13.9383H13.9331H13.928H13.9229H13.9177H13.9126H13.9075H13.9023H13.8971H13.8919H13.8868H13.8816H13.8764H13.8712H13.866H13.8607H13.8555H13.8503H13.845H13.8398H13.8345H13.8293H13.824H13.8187H13.8134H13.8081H13.8028H13.7975H13.7922H13.7869H13.7815H13.7762H13.7708H13.7655H13.7601H13.7548H13.7494H13.744H13.7386H13.7332H13.7278H13.7224H13.717H13.7115H13.7061H13.7006H13.6952H13.6897H13.6843H13.6788H13.6733H13.6678H13.6623H13.6568H13.6513H13.6458H13.6402H13.6347H13.6292H13.6236H13.6181H13.6125H13.6069H13.6013H13.5957H13.5901H13.5845H13.5789H13.5733H13.5677H13.5621H13.5564H13.5508H13.5451H13.5394H13.5338H13.5281H13.5224H13.5167H13.511H13.5053H13.4996H13.4939H13.4881H13.4824H13.4767H13.4709H13.4651H13.4594H13.4536H13.4478H13.442H13.4362H13.4304H13.4246H13.4188H13.413H13.4071H13.4013H13.3954H13.3896H13.3837H13.3778H13.3719H13.3661H13.3602H13.3543H13.3483H13.3424H13.3365H13.3306H13.3246H13.3187H13.3127H13.3068H13.3008H13.2948H13.2888H13.2828H13.2768H13.2708H13.2648H13.2588H13.2527H13.2467H13.2407H13.2346H13.2285H13.2225H13.2164H13.2103H13.2042H13.1981H13.192H13.1859H13.1798H13.1736H13.1675H13.1614H13.1552H13.1491H13.1429H13.1367H13.1305H13.1243H13.1182H13.1119H13.1057H13.0995H13.0933H13.0871H13.0808H13.0746H13.0683H13.062H13.0558H13.0495H13.0432H13.0369H13.0306H13.0243H13.018H13.0117H13.0053H12.999H12.9926H12.9863H12.9799H12.9736H12.9672H12.9608H12.9544H12.948H12.9416H12.9352H12.9288H12.9223H12.9159H12.9094H12.903H12.8965H12.8901H12.8836H12.8771H12.8706H12.8641H12.8576H12.8511H12.8446H12.8381H12.8315H12.825H12.8184H12.8119H12.8053H12.7987H12.7922H12.7856H12.779H12.7724H12.7658H12.7592H12.7525H12.7459H12.7393H12.7326H12.726H12.7193H12.7126H12.7059H12.6993H12.6926H12.6859H12.6792H12.6725H12.6657H12.659H12.6523H12.6455H12.6388H12.632H12.6252H12.6185H12.6117H12.6049H12.5981H12.5913H12.5845H12.5777H12.5708H12.564H12.5572H12.5503H12.5434H12.5366H12.5297H12.5228H12.5159H12.509H12.5021H12.4952H12.4883H12.4814H12.4745H12.4675H12.4606H12.4536H12.4467H12.4397H12.4327H12.4257H12.4187H12.4117H12.4047H12.3977H12.3907H12.3836H12.3766H12.3696H12.3625H12.3555H12.3484H12.3413H12.3342H12.3271H12.32H12.3129H12.3058H12.2987H12.2916H12.2844H12.2773H12.2701H12.263H12.2558H12.2487H12.2415H12.2343H12.2271H12.2199H12.2127H12.2055H12.1982H12.191H12.1838H12.1765H12.1693H12.162H12.1547H12.1474H12.1402H12.1329C10.0302 26.04 8.39997 24.39 8.39997 22.4449C8.39997 21.0142 9.27647 19.7507 10.5914 19.1734L11.5503 18.7524L11.5946 17.7061C11.6454 16.5034 12.6657 15.4859 13.9953 15.4859C14.4447 15.4859 14.8707 15.6138 15.254 15.8412L16.8304 16.7767L17.6252 15.1249C18.5754 13.1503 20.6411 11.76 23.0639 11.76C26.326 11.76 28.9158 14.2625 29.0502 17.3165ZM21.84 21.84C21.84 21.3761 21.4639 21 21 21C20.5361 21 20.16 21.3761 20.16 21.84V30.091L17.3474 27.6749C16.9955 27.3726 16.4651 27.4128 16.1628 27.7647C15.8605 28.1166 15.9007 28.6469 16.2526 28.9492L20.4526 32.5572C20.7674 32.8276 21.2326 32.8276 21.5474 32.5572L25.7474 28.9492C26.0993 28.6469 26.1395 28.1166 25.8372 27.7647C25.5349 27.4128 25.0045 27.3726 24.6526 27.6749L21.84 30.091V21.84Z" fill="black"/>
</mask>
<g mask="url(#mask0_2036_71)">
<rect width="42" height="42" fill="#C6D0EB"/>
</g>
</g>
</svg>
