<svg width="24" height="20" viewBox="0 0 24 20" fill="none" xmlns="http://www.w3.org/2000/svg">
<path opacity="0.6" fill-rule="evenodd" clip-rule="evenodd" d="M24 2.3658C23.1182 2.76867 22.1675 3.03939 21.1707 3.16226C22.1884 2.53866 22.9691 1.54791 23.3376 0.369299C22.3869 0.948605 21.3323 1.36933 20.2102 1.59434C19.311 0.612165 18.0322 0 16.6162 0C13.8956 0 11.6904 2.26151 11.6904 5.05018C11.6904 5.44377 11.735 5.83164 11.8199 6.19951C7.7265 5.98736 4.09693 3.97871 1.66886 0.92289C1.24607 1.67077 1.00369 2.53866 1.00369 3.46084C1.00369 5.21447 1.87016 6.76024 3.19424 7.66456C2.38767 7.63956 1.62707 7.41169 0.961895 7.03382V7.09811C0.961895 9.54534 2.66001 11.5847 4.91256 12.0497C4.49882 12.1626 4.0635 12.224 3.61773 12.224C3.29942 12.224 2.99086 12.1947 2.68996 12.1361C3.31683 14.1426 5.13614 15.6006 7.28978 15.6406C5.6042 16.9942 3.4819 17.8028 1.17503 17.8028C0.77662 17.8028 0.383086 17.7792 0 17.7313C2.17802 19.1628 4.76698 20 7.54889 20C16.6078 20 21.5608 12.3069 21.5608 5.63306C21.5608 5.41519 21.5538 5.19661 21.5462 4.98161C22.506 4.27087 23.3404 3.38155 24 2.3658Z" fill="white"/>
</svg>
